<svg width="309" height="91" viewBox="0 0 309 91" fill="none" xmlns="http://www.w3.org/2000/svg">
<path d="M176.362 2.79785V36H168.815V13.585L165.801 36H160.448L157.27 14.0977V36H149.723V2.79785H160.899C161.228 4.79395 161.576 7.14551 161.945 9.85254L163.135 18.3018L165.104 2.79785H176.362ZM194.737 2.79785L199.68 36H190.841L190.41 30.0322H187.313L186.801 36H177.859L182.248 2.79785H194.737ZM190.164 24.1465C189.727 20.3867 189.289 15.7451 188.852 10.2217C187.977 16.5654 187.43 21.207 187.211 24.1465H190.164ZM201.156 2.79785H207.268C211.342 2.79785 214.097 2.95508 215.532 3.26953C216.981 3.58398 218.157 4.39063 219.06 5.68945C219.976 6.97461 220.434 9.03223 220.434 11.8623C220.434 14.4463 220.112 16.1826 219.47 17.0713C218.827 17.96 217.562 18.4932 215.676 18.6709C217.385 19.0947 218.533 19.6621 219.121 20.373C219.709 21.084 220.071 21.7402 220.208 22.3418C220.358 22.9297 220.434 24.5635 220.434 27.2432V36H212.415V24.9668C212.415 23.1895 212.271 22.0889 211.984 21.665C211.711 21.2412 210.979 21.0293 209.79 21.0293V36H201.156V2.79785ZM209.79 8.47852V15.8613C210.761 15.8613 211.438 15.7314 211.82 15.4717C212.217 15.1982 212.415 14.3301 212.415 12.8672V11.042C212.415 9.98926 212.224 9.29883 211.841 8.9707C211.472 8.64258 210.788 8.47852 209.79 8.47852ZM243.956 17.2764H235.322V11.4932C235.322 9.81152 235.227 8.76562 235.035 8.35547C234.857 7.93164 234.454 7.71973 233.825 7.71973C233.114 7.71973 232.663 7.97266 232.472 8.47852C232.28 8.98438 232.185 10.0781 232.185 11.7598V27.1816C232.185 28.7949 232.28 29.8477 232.472 30.3398C232.663 30.832 233.094 31.0781 233.764 31.0781C234.406 31.0781 234.823 30.832 235.015 30.3398C235.22 29.8477 235.322 28.6924 235.322 26.874V22.7109H243.956V24.0029C243.956 27.4346 243.71 29.8682 243.218 31.3037C242.739 32.7393 241.666 33.9971 239.998 35.0771C238.344 36.1572 236.3 36.6973 233.866 36.6973C231.337 36.6973 229.252 36.2393 227.611 35.3232C225.971 34.4072 224.884 33.1426 224.351 31.5293C223.817 29.9023 223.551 27.4619 223.551 24.208V14.5078C223.551 12.1152 223.633 10.3242 223.797 9.13477C223.961 7.93164 224.446 6.77637 225.253 5.66895C226.073 4.56152 227.201 3.69336 228.637 3.06445C230.086 2.42188 231.747 2.10059 233.62 2.10059C236.163 2.10059 238.262 2.59277 239.916 3.57715C241.57 4.56152 242.657 5.79199 243.177 7.26855C243.696 8.73145 243.956 11.0146 243.956 14.1182V17.2764ZM261.962 2.79785L266.904 36H258.065L257.635 30.0322H254.538L254.025 36H245.084L249.473 2.79785H261.962ZM257.389 24.1465C256.951 20.3867 256.514 15.7451 256.076 10.2217C255.201 16.5654 254.654 21.207 254.436 24.1465H257.389ZM286.674 12.8467H278.655V10.3857C278.655 9.2373 278.553 8.50586 278.348 8.19141C278.143 7.87695 277.801 7.71973 277.322 7.71973C276.803 7.71973 276.406 7.93164 276.133 8.35547C275.873 8.7793 275.743 9.42188 275.743 10.2832C275.743 11.3906 275.894 12.2246 276.194 12.7852C276.481 13.3457 277.295 14.0225 278.635 14.8154C282.477 17.0986 284.896 18.9717 285.895 20.4346C286.893 21.8975 287.392 24.2559 287.392 27.5098C287.392 29.875 287.111 31.6182 286.551 32.7393C286.004 33.8604 284.938 34.8037 283.352 35.5693C281.766 36.3213 279.92 36.6973 277.814 36.6973C275.504 36.6973 273.528 36.2598 271.888 35.3848C270.261 34.5098 269.194 33.3955 268.688 32.042C268.183 30.6885 267.93 28.7676 267.93 26.2793V24.1055H275.948V28.1455C275.948 29.3896 276.058 30.1895 276.276 30.5449C276.509 30.9004 276.912 31.0781 277.486 31.0781C278.061 31.0781 278.484 30.8525 278.758 30.4014C279.045 29.9502 279.188 29.2803 279.188 28.3916C279.188 26.4365 278.922 25.1582 278.389 24.5566C277.842 23.9551 276.495 22.9502 274.349 21.542C272.202 20.1201 270.78 19.0879 270.083 18.4453C269.386 17.8027 268.805 16.9141 268.34 15.7793C267.889 14.6445 267.663 13.1953 267.663 11.4316C267.663 8.88867 267.984 7.0293 268.627 5.85352C269.283 4.67773 270.336 3.76172 271.785 3.10547C273.234 2.43555 274.984 2.10059 277.035 2.10059C279.277 2.10059 281.185 2.46289 282.757 3.1875C284.343 3.91211 285.389 4.82812 285.895 5.93555C286.414 7.0293 286.674 8.89551 286.674 11.5342V12.8467ZM149.723 40.7979H164.345V47.4424H158.356V53.7383H163.688V60.0547H158.356V74H149.723V40.7979ZM181.366 40.7979L186.309 74H177.47L177.039 68.0322H173.942L173.43 74H164.488L168.877 40.7979H181.366ZM176.793 62.1465C176.355 58.3867 175.918 53.7451 175.48 48.2217C174.605 54.5654 174.059 59.207 173.84 62.1465H176.793ZM214.425 40.7979V74H206.878V51.585L203.863 74H198.511L195.332 52.0977V74H187.785V40.7979H198.962C199.29 42.7939 199.639 45.1455 200.008 47.8525L201.197 56.3018L203.166 40.7979H214.425ZM237.619 60.2393C237.619 63.5752 237.537 65.9404 237.373 67.335C237.223 68.7158 236.73 69.9805 235.896 71.1289C235.076 72.2773 233.962 73.1592 232.554 73.7744C231.146 74.3896 229.505 74.6973 227.632 74.6973C225.854 74.6973 224.255 74.4102 222.833 73.8359C221.425 73.248 220.29 72.373 219.429 71.2109C218.567 70.0488 218.055 68.7842 217.891 67.417C217.727 66.0498 217.645 63.6572 217.645 60.2393V54.5586C217.645 51.2227 217.72 48.8643 217.87 47.4834C218.034 46.0889 218.526 44.8174 219.347 43.6689C220.181 42.5205 221.302 41.6387 222.71 41.0234C224.118 40.4082 225.759 40.1006 227.632 40.1006C229.409 40.1006 231.002 40.3945 232.41 40.9824C233.832 41.5566 234.974 42.4248 235.835 43.5869C236.696 44.749 237.209 46.0137 237.373 47.3809C237.537 48.748 237.619 51.1406 237.619 54.5586V60.2393ZM228.985 49.3291C228.985 47.7842 228.896 46.7998 228.719 46.376C228.555 45.9385 228.206 45.7197 227.673 45.7197C227.222 45.7197 226.873 45.8975 226.627 46.2529C226.395 46.5947 226.278 47.6201 226.278 49.3291V64.833C226.278 66.7607 226.354 67.9502 226.504 68.4014C226.668 68.8525 227.037 69.0781 227.611 69.0781C228.199 69.0781 228.575 68.8184 228.739 68.2988C228.903 67.7793 228.985 66.542 228.985 64.5869V49.3291ZM259.152 50.8467H251.134V48.3857C251.134 47.2373 251.031 46.5059 250.826 46.1914C250.621 45.877 250.279 45.7197 249.801 45.7197C249.281 45.7197 248.885 45.9316 248.611 46.3555C248.352 46.7793 248.222 47.4219 248.222 48.2832C248.222 49.3906 248.372 50.2246 248.673 50.7852C248.96 51.3457 249.773 52.0225 251.113 52.8154C254.955 55.0986 257.375 56.9717 258.373 58.4346C259.371 59.8975 259.87 62.2559 259.87 65.5098C259.87 67.875 259.59 69.6182 259.029 70.7393C258.482 71.8604 257.416 72.8037 255.83 73.5693C254.244 74.3213 252.398 74.6973 250.293 74.6973C247.982 74.6973 246.007 74.2598 244.366 73.3848C242.739 72.5098 241.673 71.3955 241.167 70.042C240.661 68.6885 240.408 66.7676 240.408 64.2793V62.1055H248.427V66.1455C248.427 67.3896 248.536 68.1895 248.755 68.5449C248.987 68.9004 249.391 69.0781 249.965 69.0781C250.539 69.0781 250.963 68.8525 251.236 68.4014C251.523 67.9502 251.667 67.2803 251.667 66.3916C251.667 64.4365 251.4 63.1582 250.867 62.5566C250.32 61.9551 248.974 60.9502 246.827 59.542C244.681 58.1201 243.259 57.0879 242.562 56.4453C241.864 55.8027 241.283 54.9141 240.818 53.7793C240.367 52.6445 240.142 51.1953 240.142 49.4316C240.142 46.8887 240.463 45.0293 241.105 43.8535C241.762 42.6777 242.814 41.7617 244.264 41.1055C245.713 40.4355 247.463 40.1006 249.514 40.1006C251.756 40.1006 253.663 40.4629 255.235 41.1875C256.821 41.9121 257.867 42.8281 258.373 43.9355C258.893 45.0293 259.152 46.8955 259.152 49.5342V50.8467ZM277.507 40.7979L282.449 74H273.61L273.18 68.0322H270.083L269.57 74H260.629L265.018 40.7979H277.507ZM272.934 62.1465C272.496 58.3867 272.059 53.7451 271.621 48.2217C270.746 54.5654 270.199 59.207 269.98 62.1465H272.934ZM302.219 50.8467H294.2V48.3857C294.2 47.2373 294.098 46.5059 293.893 46.1914C293.688 45.877 293.346 45.7197 292.867 45.7197C292.348 45.7197 291.951 45.9316 291.678 46.3555C291.418 46.7793 291.288 47.4219 291.288 48.2832C291.288 49.3906 291.438 50.2246 291.739 50.7852C292.026 51.3457 292.84 52.0225 294.18 52.8154C298.021 55.0986 300.441 56.9717 301.439 58.4346C302.438 59.8975 302.937 62.2559 302.937 65.5098C302.937 67.875 302.656 69.6182 302.096 70.7393C301.549 71.8604 300.482 72.8037 298.896 73.5693C297.311 74.3213 295.465 74.6973 293.359 74.6973C291.049 74.6973 289.073 74.2598 287.433 73.3848C285.806 72.5098 284.739 71.3955 284.233 70.042C283.728 68.6885 283.475 66.7676 283.475 64.2793V62.1055H291.493V66.1455C291.493 67.3896 291.603 68.1895 291.821 68.5449C292.054 68.9004 292.457 69.0781 293.031 69.0781C293.605 69.0781 294.029 68.8525 294.303 68.4014C294.59 67.9502 294.733 67.2803 294.733 66.3916C294.733 64.4365 294.467 63.1582 293.934 62.5566C293.387 61.9551 292.04 60.9502 289.894 59.542C287.747 58.1201 286.325 57.0879 285.628 56.4453C284.931 55.8027 284.35 54.9141 283.885 53.7793C283.434 52.6445 283.208 51.1953 283.208 49.4316C283.208 46.8887 283.529 45.0293 284.172 43.8535C284.828 42.6777 285.881 41.7617 287.33 41.1055C288.779 40.4355 290.529 40.1006 292.58 40.1006C294.822 40.1006 296.729 40.4629 298.302 41.1875C299.888 41.9121 300.934 42.8281 301.439 43.9355C301.959 45.0293 302.219 46.8955 302.219 49.5342V50.8467Z" fill="#4A6B9A"/>
<path d="M149.332 88V80.908C149.332 80.348 149.496 79.896 149.824 79.552C150.152 79.208 150.624 79.036 151.24 79.036C151.48 79.036 151.712 79.068 151.936 79.132C152.16 79.196 152.348 79.296 152.5 79.432L152.212 80.068C152.092 79.964 151.952 79.888 151.792 79.84C151.632 79.784 151.46 79.756 151.276 79.756C150.916 79.756 150.64 79.856 150.448 80.056C150.256 80.256 150.16 80.552 150.16 80.944V81.904L150.184 82.3V88H149.332ZM148.204 82.408V81.7H152.104V82.408H148.204ZM155.465 88.06C154.809 88.06 154.233 87.924 153.737 87.652C153.241 87.372 152.853 86.992 152.573 86.512C152.293 86.024 152.153 85.468 152.153 84.844C152.153 84.22 152.285 83.668 152.549 83.188C152.821 82.708 153.189 82.332 153.653 82.06C154.125 81.78 154.653 81.64 155.237 81.64C155.829 81.64 156.353 81.776 156.809 82.048C157.273 82.312 157.637 82.688 157.901 83.176C158.165 83.656 158.297 84.212 158.297 84.844C158.297 84.884 158.293 84.928 158.285 84.976C158.285 85.016 158.285 85.06 158.285 85.108H152.801V84.472H157.829L157.493 84.724C157.493 84.268 157.393 83.864 157.193 83.512C157.001 83.152 156.737 82.872 156.401 82.672C156.065 82.472 155.677 82.372 155.237 82.372C154.805 82.372 154.417 82.472 154.073 82.672C153.729 82.872 153.461 83.152 153.269 83.512C153.077 83.872 152.981 84.284 152.981 84.748V84.88C152.981 85.36 153.085 85.784 153.293 86.152C153.509 86.512 153.805 86.796 154.181 87.004C154.565 87.204 155.001 87.304 155.489 87.304C155.873 87.304 156.229 87.236 156.557 87.1C156.893 86.964 157.181 86.756 157.421 86.476L157.901 87.028C157.621 87.364 157.269 87.62 156.845 87.796C156.429 87.972 155.969 88.06 155.465 88.06ZM159.671 88V81.7H160.487V83.416L160.403 83.116C160.579 82.636 160.875 82.272 161.291 82.024C161.707 81.768 162.223 81.64 162.839 81.64V82.468C162.807 82.468 162.775 82.468 162.743 82.468C162.711 82.46 162.679 82.456 162.647 82.456C161.983 82.456 161.463 82.66 161.087 83.068C160.711 83.468 160.523 84.04 160.523 84.784V88H159.671ZM164.034 88V81.7H164.85V83.416L164.766 83.116C164.942 82.636 165.238 82.272 165.654 82.024C166.07 81.768 166.586 81.64 167.202 81.64V82.468C167.17 82.468 167.138 82.468 167.106 82.468C167.074 82.46 167.042 82.456 167.01 82.456C166.346 82.456 165.826 82.66 165.45 83.068C165.074 83.468 164.886 84.04 164.886 84.784V88H164.034ZM170.906 88.06C170.298 88.06 169.75 87.924 169.262 87.652C168.782 87.372 168.402 86.992 168.122 86.512C167.842 86.024 167.702 85.468 167.702 84.844C167.702 84.212 167.842 83.656 168.122 83.176C168.402 82.696 168.782 82.32 169.262 82.048C169.742 81.776 170.29 81.64 170.906 81.64C171.53 81.64 172.082 81.776 172.562 82.048C173.05 82.32 173.43 82.696 173.702 83.176C173.982 83.656 174.122 84.212 174.122 84.844C174.122 85.468 173.982 86.024 173.702 86.512C173.43 86.992 173.05 87.372 172.562 87.652C172.074 87.924 171.522 88.06 170.906 88.06ZM170.906 87.304C171.362 87.304 171.766 87.204 172.118 87.004C172.47 86.796 172.746 86.508 172.946 86.14C173.154 85.764 173.258 85.332 173.258 84.844C173.258 84.348 173.154 83.916 172.946 83.548C172.746 83.18 172.47 82.896 172.118 82.696C171.766 82.488 171.366 82.384 170.918 82.384C170.47 82.384 170.07 82.488 169.718 82.696C169.366 82.896 169.086 83.18 168.878 83.548C168.67 83.916 168.566 84.348 168.566 84.844C168.566 85.332 168.67 85.764 168.878 86.14C169.086 86.508 169.366 86.796 169.718 87.004C170.07 87.204 170.466 87.304 170.906 87.304ZM180.958 88.06C180.302 88.06 179.726 87.924 179.23 87.652C178.734 87.372 178.346 86.992 178.066 86.512C177.786 86.024 177.646 85.468 177.646 84.844C177.646 84.22 177.778 83.668 178.042 83.188C178.314 82.708 178.682 82.332 179.146 82.06C179.618 81.78 180.146 81.64 180.73 81.64C181.322 81.64 181.846 81.776 182.302 82.048C182.766 82.312 183.13 82.688 183.394 83.176C183.658 83.656 183.79 84.212 183.79 84.844C183.79 84.884 183.786 84.928 183.778 84.976C183.778 85.016 183.778 85.06 183.778 85.108H178.294V84.472H183.322L182.986 84.724C182.986 84.268 182.886 83.864 182.686 83.512C182.494 83.152 182.23 82.872 181.894 82.672C181.558 82.472 181.17 82.372 180.73 82.372C180.298 82.372 179.91 82.472 179.566 82.672C179.222 82.872 178.954 83.152 178.762 83.512C178.57 83.872 178.474 84.284 178.474 84.748V84.88C178.474 85.36 178.578 85.784 178.786 86.152C179.002 86.512 179.298 86.796 179.674 87.004C180.058 87.204 180.494 87.304 180.982 87.304C181.366 87.304 181.722 87.236 182.05 87.1C182.386 86.964 182.674 86.756 182.914 86.476L183.394 87.028C183.114 87.364 182.762 87.62 182.338 87.796C181.922 87.972 181.462 88.06 180.958 88.06ZM191.893 88V86.608L191.857 86.38V84.052C191.857 83.516 191.705 83.104 191.401 82.816C191.105 82.528 190.661 82.384 190.069 82.384C189.661 82.384 189.273 82.452 188.905 82.588C188.537 82.724 188.225 82.904 187.969 83.128L187.585 82.492C187.905 82.22 188.289 82.012 188.737 81.868C189.185 81.716 189.657 81.64 190.153 81.64C190.969 81.64 191.597 81.844 192.037 82.252C192.485 82.652 192.709 83.264 192.709 84.088V88H191.893ZM189.721 88.06C189.249 88.06 188.837 87.984 188.485 87.832C188.141 87.672 187.877 87.456 187.693 87.184C187.509 86.904 187.417 86.584 187.417 86.224C187.417 85.896 187.493 85.6 187.645 85.336C187.805 85.064 188.061 84.848 188.413 84.688C188.773 84.52 189.253 84.436 189.853 84.436H192.025V85.072H189.877C189.269 85.072 188.845 85.18 188.605 85.396C188.373 85.612 188.257 85.88 188.257 86.2C188.257 86.56 188.397 86.848 188.677 87.064C188.957 87.28 189.349 87.388 189.853 87.388C190.333 87.388 190.745 87.28 191.089 87.064C191.441 86.84 191.697 86.52 191.857 86.104L192.049 86.692C191.889 87.108 191.609 87.44 191.209 87.688C190.817 87.936 190.321 88.06 189.721 88.06ZM197.279 88.06C196.655 88.06 196.095 87.924 195.599 87.652C195.111 87.372 194.727 86.992 194.447 86.512C194.167 86.024 194.027 85.468 194.027 84.844C194.027 84.212 194.167 83.656 194.447 83.176C194.727 82.696 195.111 82.32 195.599 82.048C196.095 81.776 196.655 81.64 197.279 81.64C197.815 81.64 198.299 81.744 198.731 81.952C199.163 82.16 199.503 82.472 199.751 82.888L199.115 83.32C198.899 83 198.631 82.764 198.311 82.612C197.991 82.46 197.643 82.384 197.267 82.384C196.819 82.384 196.415 82.488 196.055 82.696C195.695 82.896 195.411 83.18 195.203 83.548C194.995 83.916 194.891 84.348 194.891 84.844C194.891 85.34 194.995 85.772 195.203 86.14C195.411 86.508 195.695 86.796 196.055 87.004C196.415 87.204 196.819 87.304 197.267 87.304C197.643 87.304 197.991 87.228 198.311 87.076C198.631 86.924 198.899 86.692 199.115 86.38L199.751 86.812C199.503 87.22 199.163 87.532 198.731 87.748C198.299 87.956 197.815 88.06 197.279 88.06ZM196.775 90.64C196.575 90.64 196.391 90.616 196.223 90.568C196.063 90.52 195.911 90.452 195.767 90.364L195.971 89.908C196.091 89.98 196.215 90.036 196.343 90.076C196.479 90.116 196.619 90.136 196.763 90.136C197.003 90.136 197.187 90.084 197.315 89.98C197.443 89.884 197.507 89.748 197.507 89.572C197.507 89.412 197.443 89.28 197.315 89.176C197.195 89.072 197.011 89.02 196.763 89.02H196.487L196.775 87.928H197.291L197.111 88.624C197.439 88.648 197.691 88.748 197.867 88.924C198.043 89.108 198.131 89.332 198.131 89.596C198.131 89.916 198.003 90.168 197.747 90.352C197.499 90.544 197.175 90.64 196.775 90.64ZM203.527 88.06C202.919 88.06 202.371 87.924 201.883 87.652C201.403 87.372 201.023 86.992 200.743 86.512C200.463 86.024 200.323 85.468 200.323 84.844C200.323 84.212 200.463 83.656 200.743 83.176C201.023 82.696 201.403 82.32 201.883 82.048C202.363 81.776 202.911 81.64 203.527 81.64C204.151 81.64 204.703 81.776 205.183 82.048C205.671 82.32 206.051 82.696 206.323 83.176C206.603 83.656 206.743 84.212 206.743 84.844C206.743 85.468 206.603 86.024 206.323 86.512C206.051 86.992 205.671 87.372 205.183 87.652C204.695 87.924 204.143 88.06 203.527 88.06ZM203.527 87.304C203.983 87.304 204.387 87.204 204.739 87.004C205.091 86.796 205.367 86.508 205.567 86.14C205.775 85.764 205.879 85.332 205.879 84.844C205.879 84.348 205.775 83.916 205.567 83.548C205.367 83.18 205.091 82.896 204.739 82.696C204.387 82.488 203.987 82.384 203.539 82.384C203.091 82.384 202.691 82.488 202.339 82.696C201.987 82.896 201.707 83.18 201.499 83.548C201.291 83.916 201.187 84.348 201.187 84.844C201.187 85.332 201.291 85.764 201.499 86.14C201.707 86.508 201.987 86.796 202.339 87.004C202.691 87.204 203.087 87.304 203.527 87.304ZM214.155 88.06C213.611 88.06 213.119 87.936 212.679 87.688C212.239 87.432 211.887 87.068 211.623 86.596C211.367 86.116 211.239 85.532 211.239 84.844C211.239 84.156 211.367 83.576 211.623 83.104C211.879 82.624 212.227 82.26 212.667 82.012C213.107 81.764 213.603 81.64 214.155 81.64C214.755 81.64 215.291 81.776 215.763 82.048C216.243 82.312 216.619 82.688 216.891 83.176C217.163 83.656 217.299 84.212 217.299 84.844C217.299 85.484 217.163 86.044 216.891 86.524C216.619 87.004 216.243 87.38 215.763 87.652C215.291 87.924 214.755 88.06 214.155 88.06ZM210.903 90.328V81.7H211.719V83.596L211.635 84.856L211.755 86.128V90.328H210.903ZM214.095 87.304C214.543 87.304 214.943 87.204 215.295 87.004C215.647 86.796 215.927 86.508 216.135 86.14C216.343 85.764 216.447 85.332 216.447 84.844C216.447 84.356 216.343 83.928 216.135 83.56C215.927 83.192 215.647 82.904 215.295 82.696C214.943 82.488 214.543 82.384 214.095 82.384C213.647 82.384 213.243 82.488 212.883 82.696C212.531 82.904 212.251 83.192 212.043 83.56C211.843 83.928 211.743 84.356 211.743 84.844C211.743 85.332 211.843 85.764 212.043 86.14C212.251 86.508 212.531 86.796 212.883 87.004C213.243 87.204 213.647 87.304 214.095 87.304ZM222.589 88V86.608L222.553 86.38V84.052C222.553 83.516 222.401 83.104 222.097 82.816C221.801 82.528 221.357 82.384 220.765 82.384C220.357 82.384 219.969 82.452 219.601 82.588C219.233 82.724 218.921 82.904 218.665 83.128L218.281 82.492C218.601 82.22 218.985 82.012 219.433 81.868C219.881 81.716 220.353 81.64 220.849 81.64C221.665 81.64 222.293 81.844 222.733 82.252C223.181 82.652 223.405 83.264 223.405 84.088V88H222.589ZM220.417 88.06C219.945 88.06 219.533 87.984 219.181 87.832C218.837 87.672 218.573 87.456 218.389 87.184C218.205 86.904 218.113 86.584 218.113 86.224C218.113 85.896 218.189 85.6 218.341 85.336C218.501 85.064 218.757 84.848 219.109 84.688C219.469 84.52 219.949 84.436 220.549 84.436H222.721V85.072H220.573C219.965 85.072 219.541 85.18 219.301 85.396C219.069 85.612 218.953 85.88 218.953 86.2C218.953 86.56 219.093 86.848 219.373 87.064C219.653 87.28 220.045 87.388 220.549 87.388C221.029 87.388 221.441 87.28 221.785 87.064C222.137 86.84 222.393 86.52 222.553 86.104L222.745 86.692C222.585 87.108 222.305 87.44 221.905 87.688C221.513 87.936 221.017 88.06 220.417 88.06ZM225.359 88V81.7H226.175V83.416L226.091 83.116C226.267 82.636 226.563 82.272 226.979 82.024C227.395 81.768 227.911 81.64 228.527 81.64V82.468C228.495 82.468 228.463 82.468 228.431 82.468C228.399 82.46 228.367 82.456 228.335 82.456C227.671 82.456 227.151 82.66 226.775 83.068C226.399 83.468 226.211 84.04 226.211 84.784V88H225.359ZM233.201 88V86.608L233.165 86.38V84.052C233.165 83.516 233.013 83.104 232.709 82.816C232.413 82.528 231.969 82.384 231.377 82.384C230.969 82.384 230.581 82.452 230.213 82.588C229.845 82.724 229.533 82.904 229.277 83.128L228.893 82.492C229.213 82.22 229.597 82.012 230.045 81.868C230.493 81.716 230.965 81.64 231.461 81.64C232.277 81.64 232.905 81.844 233.345 82.252C233.793 82.652 234.017 83.264 234.017 84.088V88H233.201ZM231.029 88.06C230.557 88.06 230.145 87.984 229.793 87.832C229.449 87.672 229.185 87.456 229.001 87.184C228.817 86.904 228.725 86.584 228.725 86.224C228.725 85.896 228.801 85.6 228.953 85.336C229.113 85.064 229.369 84.848 229.721 84.688C230.081 84.52 230.561 84.436 231.161 84.436H233.333V85.072H231.185C230.577 85.072 230.153 85.18 229.913 85.396C229.681 85.612 229.565 85.88 229.565 86.2C229.565 86.56 229.705 86.848 229.985 87.064C230.265 87.28 230.657 87.388 231.161 87.388C231.641 87.388 232.053 87.28 232.397 87.064C232.749 86.84 233.005 86.52 233.165 86.104L233.357 86.692C233.197 87.108 232.917 87.44 232.517 87.688C232.125 87.936 231.629 88.06 231.029 88.06ZM240.744 88.06C240.152 88.06 239.696 87.9 239.376 87.58C239.056 87.26 238.896 86.808 238.896 86.224V80.308H239.748V86.176C239.748 86.544 239.84 86.828 240.024 87.028C240.216 87.228 240.488 87.328 240.84 87.328C241.216 87.328 241.528 87.22 241.776 87.004L242.076 87.616C241.908 87.768 241.704 87.88 241.464 87.952C241.232 88.024 240.992 88.06 240.744 88.06ZM237.768 82.408V81.7H241.668V82.408H237.768ZM245.612 88.06C245.004 88.06 244.456 87.924 243.968 87.652C243.488 87.372 243.108 86.992 242.828 86.512C242.548 86.024 242.408 85.468 242.408 84.844C242.408 84.212 242.548 83.656 242.828 83.176C243.108 82.696 243.488 82.32 243.968 82.048C244.448 81.776 244.996 81.64 245.612 81.64C246.236 81.64 246.788 81.776 247.268 82.048C247.756 82.32 248.136 82.696 248.408 83.176C248.688 83.656 248.828 84.212 248.828 84.844C248.828 85.468 248.688 86.024 248.408 86.512C248.136 86.992 247.756 87.372 247.268 87.652C246.78 87.924 246.228 88.06 245.612 88.06ZM245.612 87.304C246.068 87.304 246.472 87.204 246.824 87.004C247.176 86.796 247.452 86.508 247.652 86.14C247.86 85.764 247.964 85.332 247.964 84.844C247.964 84.348 247.86 83.916 247.652 83.548C247.452 83.18 247.176 82.896 246.824 82.696C246.472 82.488 246.072 82.384 245.624 82.384C245.176 82.384 244.776 82.488 244.424 82.696C244.072 82.896 243.792 83.18 243.584 83.548C243.376 83.916 243.272 84.348 243.272 84.844C243.272 85.332 243.376 85.764 243.584 86.14C243.792 86.508 244.072 86.796 244.424 87.004C244.776 87.204 245.172 87.304 245.612 87.304ZM252.715 88.06C252.115 88.06 251.575 87.924 251.095 87.652C250.623 87.38 250.251 87.004 249.979 86.524C249.707 86.036 249.571 85.476 249.571 84.844C249.571 84.204 249.707 83.644 249.979 83.164C250.251 82.684 250.623 82.312 251.095 82.048C251.575 81.776 252.115 81.64 252.715 81.64C253.267 81.64 253.759 81.764 254.191 82.012C254.631 82.26 254.979 82.624 255.235 83.104C255.499 83.576 255.631 84.156 255.631 84.844C255.631 85.524 255.503 86.104 255.247 86.584C254.991 87.064 254.643 87.432 254.203 87.688C253.771 87.936 253.275 88.06 252.715 88.06ZM252.775 87.304C253.223 87.304 253.623 87.204 253.975 87.004C254.335 86.796 254.615 86.508 254.815 86.14C255.023 85.764 255.127 85.332 255.127 84.844C255.127 84.348 255.023 83.916 254.815 83.548C254.615 83.18 254.335 82.896 253.975 82.696C253.623 82.488 253.223 82.384 252.775 82.384C252.335 82.384 251.939 82.488 251.587 82.696C251.235 82.896 250.955 83.18 250.747 83.548C250.539 83.916 250.435 84.348 250.435 84.844C250.435 85.332 250.539 85.764 250.747 86.14C250.955 86.508 251.235 86.796 251.587 87.004C251.939 87.204 252.335 87.304 252.775 87.304ZM255.151 88V86.104L255.235 84.832L255.115 83.56V79.096H255.967V88H255.151ZM260.548 88.06C259.94 88.06 259.392 87.924 258.904 87.652C258.424 87.372 258.044 86.992 257.764 86.512C257.484 86.024 257.344 85.468 257.344 84.844C257.344 84.212 257.484 83.656 257.764 83.176C258.044 82.696 258.424 82.32 258.904 82.048C259.384 81.776 259.932 81.64 260.548 81.64C261.172 81.64 261.724 81.776 262.204 82.048C262.692 82.32 263.072 82.696 263.344 83.176C263.624 83.656 263.764 84.212 263.764 84.844C263.764 85.468 263.624 86.024 263.344 86.512C263.072 86.992 262.692 87.372 262.204 87.652C261.716 87.924 261.164 88.06 260.548 88.06ZM260.548 87.304C261.004 87.304 261.408 87.204 261.76 87.004C262.112 86.796 262.388 86.508 262.588 86.14C262.796 85.764 262.9 85.332 262.9 84.844C262.9 84.348 262.796 83.916 262.588 83.548C262.388 83.18 262.112 82.896 261.76 82.696C261.408 82.488 261.008 82.384 260.56 82.384C260.112 82.384 259.712 82.488 259.36 82.696C259.008 82.896 258.728 83.18 258.52 83.548C258.312 83.916 258.208 84.348 258.208 84.844C258.208 85.332 258.312 85.764 258.52 86.14C258.728 86.508 259.008 86.796 259.36 87.004C259.712 87.204 260.108 87.304 260.548 87.304ZM266.836 88.06C266.316 88.06 265.824 87.988 265.36 87.844C264.896 87.692 264.532 87.504 264.268 87.28L264.652 86.608C264.908 86.8 265.236 86.968 265.636 87.112C266.036 87.248 266.456 87.316 266.896 87.316C267.496 87.316 267.928 87.224 268.192 87.04C268.456 86.848 268.588 86.596 268.588 86.284C268.588 86.052 268.512 85.872 268.36 85.744C268.216 85.608 268.024 85.508 267.784 85.444C267.544 85.372 267.276 85.312 266.98 85.264C266.684 85.216 266.388 85.16 266.092 85.096C265.804 85.032 265.54 84.94 265.3 84.82C265.06 84.692 264.864 84.52 264.712 84.304C264.568 84.088 264.496 83.8 264.496 83.44C264.496 83.096 264.592 82.788 264.784 82.516C264.976 82.244 265.256 82.032 265.624 81.88C266 81.72 266.456 81.64 266.992 81.64C267.4 81.64 267.808 81.696 268.216 81.808C268.624 81.912 268.96 82.052 269.224 82.228L268.852 82.912C268.572 82.72 268.272 82.584 267.952 82.504C267.632 82.416 267.312 82.372 266.992 82.372C266.424 82.372 266.004 82.472 265.732 82.672C265.468 82.864 265.336 83.112 265.336 83.416C265.336 83.656 265.408 83.844 265.552 83.98C265.704 84.116 265.9 84.224 266.14 84.304C266.388 84.376 266.656 84.436 266.944 84.484C267.24 84.532 267.532 84.592 267.82 84.664C268.116 84.728 268.384 84.82 268.624 84.94C268.872 85.052 269.068 85.216 269.212 85.432C269.364 85.64 269.44 85.916 269.44 86.26C269.44 86.628 269.336 86.948 269.128 87.22C268.928 87.484 268.632 87.692 268.24 87.844C267.856 87.988 267.388 88.06 266.836 88.06ZM275.992 88.06C275.384 88.06 274.836 87.924 274.348 87.652C273.868 87.372 273.488 86.992 273.208 86.512C272.928 86.024 272.788 85.468 272.788 84.844C272.788 84.212 272.928 83.656 273.208 83.176C273.488 82.696 273.868 82.32 274.348 82.048C274.828 81.776 275.376 81.64 275.992 81.64C276.616 81.64 277.168 81.776 277.648 82.048C278.136 82.32 278.516 82.696 278.788 83.176C279.068 83.656 279.208 84.212 279.208 84.844C279.208 85.468 279.068 86.024 278.788 86.512C278.516 86.992 278.136 87.372 277.648 87.652C277.16 87.924 276.608 88.06 275.992 88.06ZM275.992 87.304C276.448 87.304 276.852 87.204 277.204 87.004C277.556 86.796 277.832 86.508 278.032 86.14C278.24 85.764 278.344 85.332 278.344 84.844C278.344 84.348 278.24 83.916 278.032 83.548C277.832 83.18 277.556 82.896 277.204 82.696C276.852 82.488 276.452 82.384 276.004 82.384C275.556 82.384 275.156 82.488 274.804 82.696C274.452 82.896 274.172 83.18 273.964 83.548C273.756 83.916 273.652 84.348 273.652 84.844C273.652 85.332 273.756 85.764 273.964 86.14C274.172 86.508 274.452 86.796 274.804 87.004C275.156 87.204 275.552 87.304 275.992 87.304ZM282.279 88.06C281.759 88.06 281.267 87.988 280.803 87.844C280.339 87.692 279.975 87.504 279.711 87.28L280.095 86.608C280.351 86.8 280.679 86.968 281.079 87.112C281.479 87.248 281.899 87.316 282.339 87.316C282.939 87.316 283.371 87.224 283.635 87.04C283.899 86.848 284.031 86.596 284.031 86.284C284.031 86.052 283.955 85.872 283.803 85.744C283.659 85.608 283.467 85.508 283.227 85.444C282.987 85.372 282.719 85.312 282.423 85.264C282.127 85.216 281.831 85.16 281.535 85.096C281.247 85.032 280.983 84.94 280.743 84.82C280.503 84.692 280.307 84.52 280.155 84.304C280.011 84.088 279.939 83.8 279.939 83.44C279.939 83.096 280.035 82.788 280.227 82.516C280.419 82.244 280.699 82.032 281.067 81.88C281.443 81.72 281.899 81.64 282.435 81.64C282.843 81.64 283.251 81.696 283.659 81.808C284.067 81.912 284.403 82.052 284.667 82.228L284.295 82.912C284.015 82.72 283.715 82.584 283.395 82.504C283.075 82.416 282.755 82.372 282.435 82.372C281.867 82.372 281.447 82.472 281.175 82.672C280.911 82.864 280.779 83.112 280.779 83.416C280.779 83.656 280.851 83.844 280.995 83.98C281.147 84.116 281.343 84.224 281.583 84.304C281.831 84.376 282.099 84.436 282.387 84.484C282.683 84.532 282.975 84.592 283.263 84.664C283.559 84.728 283.827 84.82 284.067 84.94C284.315 85.052 284.511 85.216 284.655 85.432C284.807 85.64 284.883 85.916 284.883 86.26C284.883 86.628 284.779 86.948 284.571 87.22C284.371 87.484 284.075 87.692 283.683 87.844C283.299 87.988 282.831 88.06 282.279 88.06ZM289.011 88V80.908C289.011 80.348 289.175 79.896 289.503 79.552C289.831 79.208 290.303 79.036 290.919 79.036C291.159 79.036 291.391 79.068 291.615 79.132C291.839 79.196 292.027 79.296 292.179 79.432L291.891 80.068C291.771 79.964 291.631 79.888 291.471 79.84C291.311 79.784 291.139 79.756 290.955 79.756C290.595 79.756 290.319 79.856 290.127 80.056C289.935 80.256 289.839 80.552 289.839 80.944V81.904L289.863 82.3V88H289.011ZM287.883 82.408V81.7H291.783V82.408H287.883ZM292.935 88V81.7H293.787V88H292.935ZM293.367 80.308C293.191 80.308 293.043 80.248 292.923 80.128C292.803 80.008 292.743 79.864 292.743 79.696C292.743 79.528 292.803 79.388 292.923 79.276C293.043 79.156 293.191 79.096 293.367 79.096C293.543 79.096 293.691 79.152 293.811 79.264C293.931 79.376 293.991 79.516 293.991 79.684C293.991 79.86 293.931 80.008 293.811 80.128C293.699 80.248 293.551 80.308 293.367 80.308ZM299.036 81.64C299.548 81.64 299.996 81.74 300.38 81.94C300.772 82.132 301.076 82.428 301.292 82.828C301.516 83.228 301.628 83.732 301.628 84.34V88H300.776V84.424C300.776 83.76 300.608 83.26 300.272 82.924C299.944 82.58 299.48 82.408 298.88 82.408C298.432 82.408 298.04 82.5 297.704 82.684C297.376 82.86 297.12 83.12 296.936 83.464C296.76 83.8 296.672 84.208 296.672 84.688V88H295.82V81.7H296.636V83.428L296.504 83.104C296.704 82.648 297.024 82.292 297.464 82.036C297.904 81.772 298.428 81.64 299.036 81.64ZM305.261 88.06C304.741 88.06 304.249 87.988 303.785 87.844C303.321 87.692 302.957 87.504 302.693 87.28L303.077 86.608C303.333 86.8 303.661 86.968 304.061 87.112C304.461 87.248 304.881 87.316 305.321 87.316C305.921 87.316 306.353 87.224 306.617 87.04C306.881 86.848 307.013 86.596 307.013 86.284C307.013 86.052 306.937 85.872 306.785 85.744C306.641 85.608 306.449 85.508 306.209 85.444C305.969 85.372 305.701 85.312 305.405 85.264C305.109 85.216 304.813 85.16 304.517 85.096C304.229 85.032 303.965 84.94 303.725 84.82C303.485 84.692 303.289 84.52 303.137 84.304C302.993 84.088 302.921 83.8 302.921 83.44C302.921 83.096 303.017 82.788 303.209 82.516C303.401 82.244 303.681 82.032 304.049 81.88C304.425 81.72 304.881 81.64 305.417 81.64C305.825 81.64 306.233 81.696 306.641 81.808C307.049 81.912 307.385 82.052 307.649 82.228L307.277 82.912C306.997 82.72 306.697 82.584 306.377 82.504C306.057 82.416 305.737 82.372 305.417 82.372C304.849 82.372 304.429 82.472 304.157 82.672C303.893 82.864 303.761 83.112 303.761 83.416C303.761 83.656 303.833 83.844 303.977 83.98C304.129 84.116 304.325 84.224 304.565 84.304C304.813 84.376 305.081 84.436 305.369 84.484C305.665 84.532 305.957 84.592 306.245 84.664C306.541 84.728 306.809 84.82 307.049 84.94C307.297 85.052 307.493 85.216 307.637 85.432C307.789 85.64 307.865 85.916 307.865 86.26C307.865 86.628 307.761 86.948 307.553 87.22C307.353 87.484 307.057 87.692 306.665 87.844C306.281 87.988 305.813 88.06 305.261 88.06Z" fill="#4A6B9A"/>
<path fill-rule="evenodd" clip-rule="evenodd" d="M47.9147 69.1182C52.7076 69.8703 61.1658 72.0314 66.7108 73.9111C76.2976 77.1067 77.7066 77.295 98.3833 78.5168C110.318 79.2678 123.288 80.4896 127.142 81.4299C130.995 82.2762 135.882 83.2155 137.95 83.591C140.863 84.0617 141.71 84.5314 141.71 85.9414C141.71 87.727 140.205 87.8212 71.5036 88.0084C23.761 88.1025 1.01726 87.9143 0.640705 87.2563C0.0768962 86.4111 -0.204497 75.9791 0.171035 71.6559C0.265174 70.9979 1.67521 70.5283 3.83631 70.5283C5.71601 70.4341 10.8855 69.8703 15.3028 69.2124C26.1104 67.4268 37.4827 67.4268 47.9147 69.1182Z" fill="#4A6B9A"/>
<path fill-rule="evenodd" clip-rule="evenodd" d="M46.7871 61.2239C51.4859 61.7877 59.0988 63.4791 63.7035 64.9833C75.3572 68.8358 79.2108 69.4938 97.0675 70.5283C119.247 71.8431 140.769 76.4488 140.769 79.9258C140.769 80.6779 140.111 81.1475 139.359 80.9603C138.608 80.772 135.224 79.8316 131.841 78.8923C123.288 76.4488 108.627 74.4749 90.489 73.3473C81.9367 72.8776 72.9137 71.8431 70.2819 71.0921C67.7453 70.34 62.5758 68.8358 58.9106 67.8023C55.1511 66.7689 48.6668 65.5471 44.3436 65.1705C35.6972 64.3253 14.739 65.1705 9.00575 66.5806C0.359314 68.7417 0.265175 68.8358 0.265175 66.9561C0.265175 65.453 1.86349 64.8891 11.3551 63.1036C27.4263 60.1894 34.7568 59.7197 46.7871 61.2239Z" fill="#4A6B9A"/>
<path fill-rule="evenodd" clip-rule="evenodd" d="M50.5465 54.0806C53.1773 54.363 59.944 56.0544 65.5832 57.84C74.1355 60.5659 78.6469 61.4111 91.4283 62.5398C111.823 64.3253 118.495 65.2647 128.082 68.0848C139.359 71.3735 141.239 72.1256 141.239 73.817C141.239 75.6026 140.769 75.6026 134.097 73.2532C123.853 69.682 112.669 67.7082 94.0601 66.2982C78.1773 64.9833 73.7599 64.3253 63.9859 61.4111C53.5539 58.4038 51.0162 58.0283 38.3279 57.6517C26.2045 57.2762 22.9148 57.4645 14.8321 59.25C-0.110355 62.5398 0.0768987 62.5398 0.453454 60.6601C0.640708 59.3442 2.89697 58.4038 9.6637 56.8065C24.6072 53.1413 33.7233 52.4833 50.5465 54.0806Z" fill="#4A6B9A"/>
<path fill-rule="evenodd" clip-rule="evenodd" d="M56.1846 47.5021C58.8164 48.1601 64.5497 49.7574 68.967 51.0733C73.3834 52.3892 82.0298 53.8933 88.2327 54.5513C94.3415 55.1151 102.801 56.0544 106.936 56.5241C123.665 58.7804 143.965 66.2051 141.052 69.1182C140.863 69.3065 136.916 68.0848 132.311 66.2982C121.221 62.1632 107.405 59.5314 90.489 58.3097C75.7338 57.2762 74.7934 57.0879 61.3541 53.0471C53.0832 50.5095 51.3917 50.3212 37.3886 50.4153C22.4451 50.5095 17.6522 51.2615 2.23902 56.0544C0.453452 56.6182 0.171036 56.43 0.453452 54.9268C0.923122 52.295 20.0957 46.8442 32.6888 45.8107C38.6103 45.34 51.6741 46.2804 56.1846 47.5021Z" fill="#4A6B9A"/>
<path fill-rule="evenodd" clip-rule="evenodd" d="M51.0162 39.044C55.9032 39.795 62.4817 41.2992 65.5831 42.3327C71.8802 44.5889 82.6878 46.5618 93.308 47.5021C103.27 48.4415 118.214 51.2615 124.604 53.5168C133.814 56.7124 141.239 60.3776 141.239 61.6935C141.239 63.4791 141.145 63.4791 131.747 59.7197C121.033 55.3965 110.976 52.8588 99.8865 51.7312C77.331 49.2877 72.5382 48.5356 63.7034 45.9979C44.0612 40.1716 21.2233 41.7689 1.86349 50.3212C0.359312 50.885 0.171034 50.6977 0.453451 48.9122C0.923121 45.34 19.5319 40.0774 37.8583 38.2919C39.6438 38.1036 41.3353 37.9163 41.6177 37.8222C41.9001 37.7281 46.1292 38.2919 51.0162 39.044Z" fill="#4A6B9A"/>
<path fill-rule="evenodd" clip-rule="evenodd" d="M53.3656 31.431C55.5267 31.7134 61.1658 33.2166 66.0528 34.7207C71.4106 36.4122 80.9022 38.2919 89.8311 39.5136C107.969 41.863 115.676 43.4613 123.476 46.3745C132.875 49.9456 141.239 54.4571 141.239 55.9603C141.239 57.7459 139.453 57.7459 137.574 56.0544C135.507 54.2689 120.469 48.4415 113.514 46.75C106.466 44.9645 97.5371 43.6486 85.0382 42.3327C79.7746 41.863 69.625 39.8892 62.4817 38.0095C50.3583 34.8149 48.9482 34.6266 38.7986 35.0963C27.5204 35.566 18.0277 37.6339 7.03191 42.0513C3.74217 43.3672 0.828982 44.1183 0.547589 43.8369C-2.45974 40.8295 20.0016 32.5586 35.2265 31.1496C42.8394 30.3975 45.6585 30.4917 53.3656 31.431Z" fill="#4A6B9A"/>
<path fill-rule="evenodd" clip-rule="evenodd" d="M54.7756 24.1005C56.5612 24.3819 62.1062 25.7919 66.9932 27.2961C71.8802 28.7051 81.6543 30.6789 88.6093 31.5251C95.5633 32.3714 105.15 34.0628 109.849 35.2846C124.51 39.044 141.239 47.0325 141.239 50.3212C141.239 52.2009 140.111 52.1067 137.386 49.9456C128.458 42.9906 107.499 36.8818 85.1313 34.7207C79.8687 34.25 72.0685 32.841 67.7453 31.6193C51.1103 26.8264 40.9597 26.0743 28.2725 28.7051C20.9419 30.2092 6.65638 35.1904 3.55492 37.2584C1.01726 39.044 0.265175 38.8557 0.265175 36.6946C0.265175 35.6601 1.01726 34.5325 1.9566 34.25C2.80283 33.8745 6.93777 32.2772 11.0737 30.4917C27.3321 23.7249 39.9262 21.8452 54.7756 24.1005Z" fill="#4A6B9A"/>
<path fill-rule="evenodd" clip-rule="evenodd" d="M66.9932 19.4017C73.4775 21.0931 81.9367 22.9728 85.7892 23.5367C109.943 26.9195 120.939 30.3975 137.198 40.0774C140.206 41.7689 141.803 44.0251 140.769 44.9645C140.581 45.2469 137.856 43.931 134.943 42.1454C121.315 33.8745 108.44 29.8337 87.6689 27.2961C82.7819 26.7323 72.444 24.7584 64.6438 22.8787C51.8614 19.8714 49.7003 19.589 41.148 20.0597C27.7087 20.8107 11.8248 25.5105 3.93045 31.1496C0.734846 33.4048 0.265175 33.4048 0.265175 31.1496C0.265175 28.9875 13.8928 22.0325 24.2307 18.931C39.3624 14.3264 48.9482 14.4205 66.9932 19.4017Z" fill="#4A6B9A"/>
<path fill-rule="evenodd" clip-rule="evenodd" d="M55.057 8.87556C57.5947 9.15696 63.0455 10.4729 67.2746 11.6946C71.5037 13.0105 81.5601 15.0785 89.5486 16.4875C112.011 20.2469 120.375 23.1601 134.755 32.4645C141.427 36.7877 142.649 38.0095 141.71 39.5136C141.333 40.0774 140.017 39.6078 138.42 38.1977C127.988 29.4572 108.44 22.409 85.7892 19.3076C79.8687 18.5555 70.9399 16.7699 66.0528 15.454C44.8133 9.8149 27.5204 11.977 7.97228 22.6904C4.11873 24.7584 0.828989 26.2616 0.547596 25.9802C-0.862439 24.6643 1.86349 22.5032 11.1669 17.7093C22.0696 12.0701 29.1177 9.72077 38.2338 8.59315C43.7788 7.84106 45.6585 7.84106 55.057 8.87556Z" fill="#4A6B9A"/>
<path fill-rule="evenodd" clip-rule="evenodd" d="M59.4744 0.980189C61.2599 1.45088 65.7714 2.85989 69.4367 4.08165C73.1961 5.39755 81.3718 7.27725 87.7631 8.40487C107.594 11.8829 119.717 16.0178 131.089 23.2542C137.292 27.2961 142.179 31.431 142.179 32.6528C142.179 34.7207 140.3 34.0628 136.352 30.5848C127.706 23.2542 110.883 16.2061 94.7181 13.1988C73.2902 9.2511 65.3949 7.65381 59.4744 6.14963C51.2976 3.98854 36.261 4.64648 27.0507 7.55967C19.626 9.90904 11.1669 13.9498 5.24634 17.9917C0.640707 21.1873 0.265175 21.2814 0.265175 19.0252C0.265175 16.7699 12.0131 9.06282 21.4116 5.11615C32.0319 0.698796 50.7338 -1.36919 59.4744 0.980189Z" fill="#4A6B9A"/>
<path fill-rule="evenodd" clip-rule="evenodd" d="M47.9147 69.1182C52.7076 69.8703 61.1658 72.0314 66.7108 73.9111C76.2976 77.1067 77.7066 77.295 98.3833 78.5168C110.318 79.2678 123.288 80.4896 127.142 81.4299C130.995 82.2762 135.882 83.2155 137.95 83.591C140.863 84.0617 141.71 84.5314 141.71 85.9414C141.71 87.727 140.205 87.8212 71.5036 88.0084C23.761 88.1025 1.01726 87.9143 0.640705 87.2563C0.0768962 86.4111 -0.204497 75.9791 0.171035 71.6559C0.265174 70.9979 1.67521 70.5283 3.83631 70.5283C5.71601 70.4341 10.8855 69.8703 15.3028 69.2124C26.1104 67.4268 37.4827 67.4268 47.9147 69.1182Z" fill="#4A6B9A"/>
<path fill-rule="evenodd" clip-rule="evenodd" d="M46.7871 61.2239C51.4859 61.7877 59.0988 63.4791 63.7035 64.9833C75.3572 68.8358 79.2108 69.4938 97.0675 70.5283C119.247 71.8431 140.769 76.4488 140.769 79.9258C140.769 80.6779 140.111 81.1475 139.359 80.9603C138.608 80.772 135.224 79.8316 131.841 78.8923C123.288 76.4488 108.627 74.4749 90.489 73.3473C81.9367 72.8776 72.9137 71.8431 70.2819 71.0921C67.7453 70.34 62.5758 68.8358 58.9106 67.8023C55.1511 66.7689 48.6668 65.5471 44.3436 65.1705C35.6972 64.3253 14.739 65.1705 9.00575 66.5806C0.359314 68.7417 0.265175 68.8358 0.265175 66.9561C0.265175 65.453 1.86349 64.8891 11.3551 63.1036C27.4263 60.1894 34.7568 59.7197 46.7871 61.2239Z" fill="#4A6B9A"/>
<path fill-rule="evenodd" clip-rule="evenodd" d="M50.5465 54.0806C53.1773 54.363 59.944 56.0544 65.5832 57.84C74.1355 60.5659 78.6469 61.4111 91.4283 62.5398C111.823 64.3253 118.495 65.2647 128.082 68.0848C139.359 71.3735 141.239 72.1256 141.239 73.817C141.239 75.6026 140.769 75.6026 134.097 73.2532C123.853 69.682 112.669 67.7082 94.0601 66.2982C78.1773 64.9833 73.7599 64.3253 63.9859 61.4111C53.5539 58.4038 51.0162 58.0283 38.3279 57.6517C26.2045 57.2762 22.9148 57.4645 14.8321 59.25C-0.110355 62.5398 0.0768987 62.5398 0.453454 60.6601C0.640708 59.3442 2.89697 58.4038 9.6637 56.8065C24.6072 53.1413 33.7233 52.4833 50.5465 54.0806Z" fill="#4A6B9A"/>
<path fill-rule="evenodd" clip-rule="evenodd" d="M56.1846 47.5021C58.8164 48.1601 64.5497 49.7574 68.967 51.0733C73.3834 52.3892 82.0298 53.8933 88.2327 54.5513C94.3415 55.1151 102.801 56.0544 106.936 56.5241C123.665 58.7804 143.965 66.2051 141.052 69.1182C140.863 69.3065 136.916 68.0848 132.311 66.2982C121.221 62.1632 107.405 59.5314 90.489 58.3097C75.7338 57.2762 74.7934 57.0879 61.3541 53.0471C53.0832 50.5095 51.3917 50.3212 37.3886 50.4153C22.4451 50.5095 17.6522 51.2615 2.23902 56.0544C0.453452 56.6182 0.171036 56.43 0.453452 54.9268C0.923122 52.295 20.0957 46.8442 32.6888 45.8107C38.6103 45.34 51.6741 46.2804 56.1846 47.5021Z" fill="#4A6B9A"/>
<path fill-rule="evenodd" clip-rule="evenodd" d="M51.0162 39.044C55.9032 39.795 62.4817 41.2992 65.5831 42.3327C71.8802 44.5889 82.6878 46.5618 93.308 47.5021C103.27 48.4415 118.214 51.2615 124.604 53.5168C133.814 56.7124 141.239 60.3776 141.239 61.6935C141.239 63.4791 141.145 63.4791 131.747 59.7197C121.033 55.3965 110.976 52.8588 99.8865 51.7312C77.331 49.2877 72.5382 48.5356 63.7034 45.9979C44.0612 40.1716 21.2233 41.7689 1.86349 50.3212C0.359312 50.885 0.171034 50.6977 0.453451 48.9122C0.923121 45.34 19.5319 40.0774 37.8583 38.2919C39.6438 38.1036 41.3353 37.9163 41.6177 37.8222C41.9001 37.7281 46.1292 38.2919 51.0162 39.044Z" fill="#4A6B9A"/>
<path fill-rule="evenodd" clip-rule="evenodd" d="M53.3656 31.431C55.5267 31.7134 61.1658 33.2166 66.0528 34.7207C71.4106 36.4122 80.9022 38.2919 89.8311 39.5136C107.969 41.863 115.676 43.4613 123.476 46.3745C132.875 49.9456 141.239 54.4571 141.239 55.9603C141.239 57.7459 139.453 57.7459 137.574 56.0544C135.507 54.2689 120.469 48.4415 113.514 46.75C106.466 44.9645 97.5371 43.6486 85.0382 42.3327C79.7746 41.863 69.625 39.8892 62.4817 38.0095C50.3583 34.8149 48.9482 34.6266 38.7986 35.0963C27.5204 35.566 18.0277 37.6339 7.03191 42.0513C3.74217 43.3672 0.828982 44.1183 0.547589 43.8369C-2.45974 40.8295 20.0016 32.5586 35.2265 31.1496C42.8394 30.3975 45.6585 30.4917 53.3656 31.431Z" fill="#4A6B9A"/>
<path fill-rule="evenodd" clip-rule="evenodd" d="M54.7756 24.1005C56.5612 24.3819 62.1062 25.7919 66.9932 27.2961C71.8802 28.7051 81.6543 30.6789 88.6093 31.5251C95.5633 32.3714 105.15 34.0628 109.849 35.2846C124.51 39.044 141.239 47.0325 141.239 50.3212C141.239 52.2009 140.111 52.1067 137.386 49.9456C128.458 42.9906 107.499 36.8818 85.1313 34.7207C79.8687 34.25 72.0685 32.841 67.7453 31.6193C51.1103 26.8264 40.9597 26.0743 28.2725 28.7051C20.9419 30.2092 6.65638 35.1904 3.55492 37.2584C1.01726 39.044 0.265175 38.8557 0.265175 36.6946C0.265175 35.6601 1.01726 34.5325 1.9566 34.25C2.80283 33.8745 6.93777 32.2772 11.0737 30.4917C27.3321 23.7249 39.9262 21.8452 54.7756 24.1005Z" fill="#4A6B9A"/>
<path fill-rule="evenodd" clip-rule="evenodd" d="M66.9932 19.4017C73.4775 21.0931 81.9367 22.9728 85.7892 23.5367C109.943 26.9195 120.939 30.3975 137.198 40.0774C140.206 41.7689 141.803 44.0251 140.769 44.9645C140.581 45.2469 137.856 43.931 134.943 42.1454C121.315 33.8745 108.44 29.8337 87.6689 27.2961C82.7819 26.7323 72.444 24.7584 64.6438 22.8787C51.8614 19.8714 49.7003 19.589 41.148 20.0597C27.7087 20.8107 11.8248 25.5105 3.93045 31.1496C0.734846 33.4048 0.265175 33.4048 0.265175 31.1496C0.265175 28.9875 13.8928 22.0325 24.2307 18.931C39.3624 14.3264 48.9482 14.4205 66.9932 19.4017Z" fill="#4A6B9A"/>
<path fill-rule="evenodd" clip-rule="evenodd" d="M55.057 8.87556C57.5947 9.15696 63.0455 10.4729 67.2746 11.6946C71.5037 13.0105 81.5601 15.0785 89.5486 16.4875C112.011 20.2469 120.375 23.1601 134.755 32.4645C141.427 36.7877 142.649 38.0095 141.71 39.5136C141.333 40.0774 140.017 39.6078 138.42 38.1977C127.988 29.4572 108.44 22.409 85.7892 19.3076C79.8687 18.5555 70.9399 16.7699 66.0528 15.454C44.8133 9.8149 27.5204 11.977 7.97228 22.6904C4.11873 24.7584 0.828989 26.2616 0.547596 25.9802C-0.862439 24.6643 1.86349 22.5032 11.1669 17.7093C22.0696 12.0701 29.1177 9.72077 38.2338 8.59315C43.7788 7.84106 45.6585 7.84106 55.057 8.87556Z" fill="#4A6B9A"/>
<path fill-rule="evenodd" clip-rule="evenodd" d="M59.4744 0.980189C61.2599 1.45088 65.7714 2.85989 69.4367 4.08165C73.1961 5.39755 81.3718 7.27725 87.7631 8.40487C107.594 11.8829 119.717 16.0178 131.089 23.2542C137.292 27.2961 142.179 31.431 142.179 32.6528C142.179 34.7207 140.3 34.0628 136.352 30.5848C127.706 23.2542 110.883 16.2061 94.7181 13.1988C73.2902 9.2511 65.3949 7.65381 59.4744 6.14963C51.2976 3.98854 36.261 4.64648 27.0507 7.55967C19.626 9.90904 11.1669 13.9498 5.24634 17.9917C0.640707 21.1873 0.265175 21.2814 0.265175 19.0252C0.265175 16.7699 12.0131 9.06282 21.4116 5.11615C32.0319 0.698796 50.7338 -1.36919 59.4744 0.980189Z" fill="#4A6B9A"/>
</svg>
